<svg id="Layer_1" data-name="Layer 1" xmlns="http://www.w3.org/2000/svg" width="718.95" height="359.47" viewBox="0 0 718.95 359.47"><defs><style>.cls-1{fill:#010101;}</style></defs><title>mtn_logo_freelogovectors.net</title><g id="Page-1"><g id="Homepage_TWO-LINE-HEADLINE-Copy" data-name="Homepage TWO-LINE-HEADLINE-Copy"><g id="NAV"><g id="Group-10"><g id="NAV-2" data-name="NAV"><g id="mtn_LOGO_2021" data-name="mtn LOGO 2021"><path id="Fill-1" class="cls-1" d="M375,527.09C176.72,527.09,43.54,448.45,43.54,375S176.72,222.91,375,222.91,706.46,301.55,706.46,375,573.28,527.09,375,527.09m0-331.83C176.47,195.26,15.53,275.73,15.53,375S176.47,554.74,375,554.74,734.47,474.27,734.47,375,573.53,195.26,375,195.26" transform="translate(-15.53 -195.26)"/><polygon id="Fill-3" class="cls-1" points="307.19 147.48 352.07 147.48 352.07 239.65 381.99 239.65 381.99 147.48 426.88 147.48 426.88 119.83 307.05 120.01 307.19 147.48"/><polygon id="Fill-5" class="cls-1" points="531.76 120.01 531.76 191.49 471.94 119.83 441.85 120.01 441.85 239.69 471.94 239.65 471.94 165.91 531.76 239.65 561.68 239.69 561.68 120.01 531.76 120.01"/><polygon id="Fill-7" class="cls-1" points="224.67 170.52 186.16 119.83 157.27 119.83 157.37 239.69 186.16 239.65 186.16 165.91 215.04 202.78 234.3 202.78 263.19 165.91 263.19 239.65 291.97 239.69 292.07 119.83 263.19 119.83 224.67 170.52"/></g></g></g></g></g></g></svg>