<?xml version="1.0" encoding="UTF-8" standalone="no" ?>
<!DOCTYPE svg PUBLIC "-//W3C//DTD SVG 1.1//EN" "http://www.w3.org/Graphics/SVG/1.1/DTD/svg11.dtd">
<svg xmlns="http://www.w3.org/2000/svg" xmlns:xlink="http://www.w3.org/1999/xlink" version="1.1" width="1080" height="1080" viewBox="0 0 1080 1080" xml:space="preserve">
<desc>Created with Fabric.js 5.2.4</desc>
<defs>
</defs>
<g transform="matrix(1 0 0 1 540 540)" id="727abb10-011f-45c5-bd1e-7870cbf5afc2"  >
<rect style="stroke: none; stroke-width: 1; stroke-dasharray: none; stroke-linecap: butt; stroke-dashoffset: 0; stroke-linejoin: miter; stroke-miterlimit: 4; fill: rgb(255,255,255); fill-rule: nonzero; opacity: 1; visibility: hidden;" vector-effect="non-scaling-stroke"  x="-540" y="-540" rx="0" ry="0" width="1080" height="1080" />
</g>
<g transform="matrix(1 0 0 1 540 540)" id="c78aa45e-c469-4572-a9e8-721974578ee2"  >
</g>
<g transform="matrix(NaN NaN NaN NaN 0 0)"  >
<g style=""   >
</g>
</g>
<g transform="matrix(-19.59 0 0 -19.59 759.77 461.76)" id="247402a5-1ed8-4558-8a5d-ed0c718e533b"  >
<path style="stroke: rgb(0,128,255); stroke-width: 0; stroke-dasharray: none; stroke-linecap: butt; stroke-dashoffset: 0; stroke-linejoin: miter; stroke-miterlimit: 4; fill: rgb(255,0,0); fill-rule: nonzero; opacity: 1;" vector-effect="non-scaling-stroke"  transform=" translate(-12, -12)" d="M 12 3 C 12.2652 3 12.5196 3.10536 12.7071 3.29289 L 19.7071 10.2929 C 20.0976 10.6834 20.0976 11.3166 19.7071 11.7071 C 19.3166 12.0976 18.6834 12.0976 18.2929 11.7071 L 13 6.41421 L 13 20 C 13 20.5523 12.5523 21 12 21 C 11.4477 21 11 20.5523 11 20 L 11 6.41421 L 5.70711 11.7071 C 5.31658 12.0976 4.68342 12.0976 4.29289 11.7071 C 3.90237 11.3166 3.90237 10.6834 4.29289 10.2929 L 11.2929 3.29289 C 11.4804 3.10536 11.7348 3 12 3 Z" stroke-linecap="round" />
</g>
<g transform="matrix(16.8 0 0 19.11 399.19 456.04)" id="772b344c-a74b-4e27-aefe-d33f6f1d195f"  >
<path style="stroke: rgb(0,0,0); stroke-width: 0; stroke-dasharray: none; stroke-linecap: butt; stroke-dashoffset: 0; stroke-linejoin: miter; stroke-miterlimit: 4; fill: rgb(0,0,0); fill-rule: nonzero; opacity: 1;" vector-effect="non-scaling-stroke"  transform=" translate(-12, -12)" d="M 11 16 C 11 16.5523 11.4477 17 12 17 C 12.5523 17 13 16.5523 13 16 L 11 16 Z M 8.21567 14.3922 C 8.75496 14.2731 9.09558 13.7394 8.97647 13.2001 C 8.85735 12.6608 8.32362 12.3202 7.78433 12.4393 L 8.21567 14.3922 Z M 16.2157 12.4393 C 15.6764 12.3202 15.1426 12.6608 15.0235 13.2001 C 14.9044 13.7394 15.245 14.2731 15.7843 14.3922 L 16.2157 12.4393 Z M 15 7 C 15 8.65685 13.6569 10 12 10 L 12 12 C 14.7614 12 17 9.76142 17 7 L 15 7 Z M 12 10 C 10.3431 10 9 8.65685 9 7 L 7 7 C 7 9.76142 9.23858 12 12 12 L 12 10 Z M 9 7 C 9 5.34315 10.3431 4 12 4 L 12 2 C 9.23858 2 7 4.23858 7 7 L 9 7 Z M 12 4 C 13.6569 4 15 5.34315 15 7 L 17 7 C 17 4.23858 14.7614 2 12 2 L 12 4 Z M 11 11 L 11 16 L 13 16 L 13 11 L 11 11 Z M 20 17 C 20 17.2269 19.9007 17.5183 19.5683 17.8676 C 19.2311 18.222 18.6958 18.5866 17.9578 18.9146 C 16.4844 19.5694 14.3789 20 12 20 L 12 22 C 14.5917 22 16.9861 21.5351 18.7701 20.7422 C 19.6608 20.3463 20.4435 19.8491 21.0171 19.2463 C 21.5956 18.6385 22 17.8777 22 17 L 20 17 Z M 12 20 C 9.62114 20 7.51558 19.5694 6.04218 18.9146 C 5.30422 18.5866 4.76892 18.222 4.43166 17.8676 C 4.0993 17.5183 4 17.2269 4 17 L 2 17 C 2 17.8777 2.40438 18.6385 2.98287 19.2463 C 3.55645 19.8491 4.33918 20.3463 5.2299 20.7422 C 7.01386 21.5351 9.40829 22 12 22 L 12 20 Z M 4 17 C 4 16.6824 4.20805 16.2134 4.96356 15.6826 C 5.70129 15.1644 6.81544 14.7015 8.21567 14.3922 L 7.78433 12.4393 C 6.22113 12.7846 4.83528 13.3285 3.81386 14.0461 C 2.81023 14.7512 2 15.747 2 17 L 4 17 Z M 15.7843 14.3922 C 17.1846 14.7015 18.2987 15.1644 19.0364 15.6826 C 19.792 16.2134 20 16.6824 20 17 L 22 17 C 22 15.747 21.1898 14.7512 20.1861 14.0461 C 19.1647 13.3285 17.7789 12.7846 16.2157 12.4393 L 15.7843 14.3922 Z" stroke-linecap="round" />
</g>
</svg>