<svg xmlns="http://www.w3.org/2000/svg" width="256" height="256"><path fill="#1976D2" fill-opacity=".016" fill-rule="evenodd" d="M0 128.004v128.004l128.25-.254 128.25-.254.254-127.75L257.008 0H0zm.485.496c0 70.4.119 99.053.265 63.672s.146-92.98 0-128S.485 58.1.485 128.5"/><path fill="#1976D2" fill-opacity=".322" fill-rule="evenodd" d="M20.453 80.326c-8.514 3.281-13.995 9.039-17.001 17.861-1.311 3.847-1.521 9.085-1.262 31.464.294 25.44.426 27.065 2.512 30.965 3.55 6.635 7.015 10.098 13.094 13.083L23.5 176.5h209l5.704-2.801c6.079-2.985 9.544-6.448 13.094-13.083 2.088-3.903 2.218-5.515 2.509-31.175.29-25.467.184-27.389-1.794-32.677-2.459-6.573-8.077-12.634-14.516-15.661-4.463-2.097-4.764-2.103-109.236-2.027-77.631.056-105.55.38-107.808 1.25m.73 1.576C14.668 84.152 9.521 88.883 6.387 95.5c-2.309 4.877-2.368 5.672-2.377 32.282-.011 29.312.187 30.676 5.434 37.556 1.401 1.837 4.912 4.65 7.802 6.251L22.5 174.5h211l4.134-2.211c5.262-2.815 9.554-7.106 11.969-11.969 1.7-3.424 1.927-6.691 2.191-31.531.282-26.519.202-27.928-1.863-32.728-1.187-2.758-4.089-6.795-6.449-8.971-8.056-7.425-2.611-7.094-115.914-7.057-95.423.03-101.365.135-106.385 1.869M37 88.8c0 .66-.492 1.088-1.093.95-2.192-.501-3.441 2.997-2.223 6.225.628 1.664.731 3.025.229 3.025-1.543 0-1.01 4.026.616 4.65 1.322.507 1.288.766-.25 1.907-1.487 1.105-1.577 1.651-.549 3.336.74 1.213.852 2.247.281 2.6-1.442.892-.863 7.798.794 9.455.994.994 1.099 1.584.329 1.841-.624.208-1.134 2.114-1.134 4.235s-.433 4.125-.962 4.452c-.611.378-.588 1.577.063 3.289.571 1.502.632 2.824.138 2.989-1.425.475-.155 6.246 1.374 6.246.763 0 1.387.45 1.387 1s-.413 1-.917 1c-1.726 0-2.782 5.328-1.68 8.48 1.419 4.057 1.561 4.191 2.636 2.491.594-.939.936-1.032.946-.256.008.668-.912 1.711-2.046 2.317-2.847 1.524-2.221 5.357.948 5.805 1.313.186 2.768-.264 3.235-1 .523-.825.853-.9.863-.197.01.733 2.514 1.178 7.015 1.247 6.301.096 8.597-.782 6.094-2.329-.498-.308-.673-1.452-.388-2.543s.212-3.204-.162-4.697c-.534-2.126-.88-2.4-1.597-1.266-.758 1.198-.919 1.146-.932-.302-.008-.963.435-1.75.985-1.75s1-1.125 1-2.5.422-2.5.938-2.5c1.222 0 .952-4.299-.326-5.174-.617-.423-.498-1.258.32-2.244.717-.864 1.068-2.474.779-3.578-.288-1.104-.113-1.753.389-1.442.503.311 1.184-.139 1.514-.999.33-.859 1.072-1.563 1.648-1.563s.284.844-.65 1.876c-1.591 1.758-1.592 1.918-.012 2.524 2.281.875 2.519.474 2.714-4.579.168-4.333.197-4.366 3.848-4.366 3.269 0 3.724.313 4.091 2.816.506 3.445-.721 4.403-2.877 2.248-2.262-2.262-3.823-1.402-4.189 2.308-.258 2.613.04 3.173 1.691 3.173 1.102 0 2.305-.486 2.672-1.081.368-.595 1.744-.811 3.059-.481 1.577.396 2.396.168 2.406-.669.012-.995.195-.987.845.039 1.032 1.627 6.14.546 6.14-1.3 0-1.351 3.439-2.812 6.075-2.58.866.076 2.631-1.24 3.922-2.925l2.348-3.063 2.638 4.78c1.451 2.629 3.061 4.679 3.578 4.555s3.045-1.009 5.62-1.967c3.491-1.3 5.377-1.497 7.418-.775 4.734 1.673 3.873 3.17-2.465 4.287C93.991 138.959 88 144.139 88 152.5c0 5.81 2.199 9.681 7.046 12.406 4.826 2.712 8.527 2.645 14.264-.259 4.42-2.238 4.677-2.263 5.237-.5.493 1.554 1.638 1.853 7.101 1.853h6.514l-.331-17.75c-.372-19.957-1.211-22.804-7.866-26.715-5.38-3.16-17.61-2.823-25.215.695-3.162 1.463-5.75 2.22-5.75 1.683s.675-1.235 1.5-1.551c1.918-.736 1.967-4.362.059-4.362-.793 0-1.719-.449-2.058-.999-.356-.576.359-.893 1.691-.75 1.724.186 2.308-.257 2.308-1.751 0-1.329-.667-2.001-1.987-2.002-1.181-.001-2.523-1.117-3.305-2.75-.924-1.927-2.122-2.783-4.013-2.864-1.693-.073-2.044-.286-.945-.573 1.06-.277 1.75-1.414 1.75-2.884 0-2.861-.684-3.023-3.19-.755-1.75 1.583-1.833 1.546-1.579-.709.355-3.143-3.125-4.086-3.916-1.061-.298 1.141-.942 1.828-1.431 1.526-.509-.315-.47-1.333.092-2.384.704-1.315.592-2.157-.394-2.976-.756-.628-1.146-2.02-.865-3.094.589-2.253 2.475-1.596 2.06.719-.452 2.518 2.88 4.078 4.739 2.219 1.405-1.405 1.348-1.816-.601-4.293-1.197-1.521-2.77-2.505-3.535-2.211-.759.291-1.38.146-1.38-.323 0-1.189-4.927-2.013-5.593-.935-.3.486-1.068.56-1.706.165-1.569-.97-14.245-1.215-15.718-.304-.648.4-2.934.281-5.081-.264-2.725-.691-4.303-.659-5.227.107-.965.802-1.64.781-2.499-.078-.901-.901-1.176-.896-1.176.024m5.5 4.2c.212 1.1-.066 2-.616 2-.551 0-.755.399-.454.887.698 1.129-2.05 3.466-3.224 2.74-.485-.299-.776 1.125-.648 3.164.303 4.814.202 4.653 1.989 3.17 1.161-.964 1.246-1.471.338-2.032-.9-.556-.772-1.185.5-2.457.941-.941 1.985-1.435 2.321-1.1.335.336 1.2.121 1.922-.478 1.914-1.588 7.305 1.031 8.031 3.903.32 1.263.318 2.559-.004 2.881-.321.322-.119 1.455.45 2.517.729 1.364.698 2.337-.105 3.305-.827.997-.842 1.926-.056 3.396.596 1.112 1.024 2.379.951 2.813-.446 2.673.326 4.291 2.046 4.291 1.068 0 2.21.435 2.539.967.627 1.015 6.658.227 7.52-.983.275-.386 2.746-1.89 5.492-3.343 2.746-1.452 4.244-2.641 3.33-2.641-1.723 0-5.472-9.026-4.985-12 .218-1.327.131-1.328-.754-.008-.823 1.228-1.228 1.26-2.291.182-1.057-1.07-1.004-1.524.292-2.491 2.375-1.773 3.328-6.588 1.446-7.31-.835-.32-1.27-.985-.965-1.478.304-.492.125-.895-.399-.895-1.802 0-2.081 2.948-.374 3.955 1.079.637 1.332 1.291.688 1.777-.562.422-1.525 1.919-2.141 3.325-1.09 2.489-3.222 2.895-10.706 2.042-.476-.055-.631-.999-.343-2.099.388-1.483.03-2-1.384-2-1.456 0-1.938-.767-2.042-3.25-.099-2.35-.256-2.627-.57-1-.332 1.723-1.12 2.25-3.364 2.25-2.589 0-2.93-.349-2.93-3 0-1.65-.424-3-.943-3s-.769.9-.557 2m16.971-.649c-.491 1.192-.265 2.166.633 2.735 2.05 1.297 3.291 1.104 2.153-.336-.544-.687-1.221-1.925-1.506-2.75-.423-1.224-.658-1.159-1.28.351m-3.658.332c.721.289 1.584.253 1.916-.079s-.258-.568-1.312-.525c-1.165.048-1.402.285-.604.604m25.493 3.962c-.387 1.009.091 2.172 1.236 3.009 1.587 1.161 2.086 1.146 3.327-.094 1.198-1.198 1.229-1.737.173-3.01-1.679-2.022-3.941-1.977-4.736.095m-24.227 1.07c-.043.668.821 1.696 1.921 2.285 1.205.645 2 .688 2 .109 0-.53.563-1.162 1.25-1.407.688-.244.044-.294-1.43-.112-1.474.183-2.9-.213-3.171-.879-.383-.945-.508-.944-.57.004m28.422 3.283c-.339.549.049 2.236.863 3.75.813 1.514 1.725 3.539 2.026 4.502.632 2.022 4.61 2.399 4.61.438 0-.722-.911-3.197-2.023-5.5-1.94-4.014-4.165-5.311-5.476-3.19M44 102.82c0 .785.879 1.19 2.172 1 3.072-.453 3.336-2.32.328-2.32-1.404 0-2.5.579-2.5 1.32m3.447 6.911c.032 2.073.355 4.224.717 4.78.825 1.267-1.08 3.894-3.477 4.794-.998.374-1.52 1.156-1.161 1.736.451.732 1.072.707 2.019-.079.752-.624 1.914-.797 2.581-.384.832.514 1.017.236.588-.882-.345-.898-.262-1.857.184-2.133 1.126-.696.629-10.887-.55-11.28-.528-.176-.933 1.376-.901 3.448m-10.157 3.14c.145 1.988.637 2.708 1.597 2.341 1.049-.402 1.277.214.938 2.525-.328 2.235-.096 2.92.863 2.552.722-.276 1.312-1.13 1.312-1.896s.788-1.417 1.75-1.445c1.469-.044 1.389-.305-.5-1.622-1.237-.864-2.25-2.142-2.25-2.841 0-1.051-2.043-2.485-3.542-2.485-.207 0-.283 1.292-.168 2.871m41.234-1.514c-.288.904-.735 2.318-.993 3.143-.257.825-.041 1.5.481 1.5 1.119 0 2.501-4.821 1.632-5.69-.328-.328-.833.143-1.12 1.047m5.129 2.565c-1.597.581-1.649.837-.383 1.887 1.161.964 1.709.921 2.646-.208 1.433-1.727.261-2.597-2.263-1.679M77.5 119c.34.55.816 1 1.059 1s.441-.45.441-1-.477-1-1.059-1-.781.45-.441 1m6.255 2.5c.584 3.052 1.357 3.151 3.078.395.723-1.157.863-1.825.31-1.483a1.19 1.19 0 0 1-1.633-.396c-1.18-1.91-2.233-1.02-1.755 1.484m62.938-.8c-1.023.266-1.669 1.186-1.489 2.123.411 2.132 3.796 2.854 3.796.809 0-.833.45-1.792 1-2.132.583-.36 1 .646 1 2.41 0 2.376-.347 2.894-1.615 2.407-1.316-.504-1.481-.174-.888 1.782.595 1.962.488 2.172-.585 1.151-.721-.687-2.113-1.25-3.093-1.25-1.064 0-2.033-1.003-2.407-2.493-.762-3.038-2.412-2.319-2.412 1.052 0 2.035-.49 2.441-2.941 2.441-1.618 0-3.219.45-3.559 1-.378.611 1.156 1 3.941 1 2.927 0 4.595-.447 4.659-1.25.055-.687.423-.125.818 1.25.862 3.003.222 6.205-1.08 5.4-.552-.341-.455-1.156.236-1.989 1.343-1.618-.149-1.827-3.552-.498-1.252.489-2.475.277-3.331-.579-1.548-1.548-3.191-.907-3.191 1.246 0 2.091 4.891 4.214 5.91 2.566.589-.953 1.065-.881 2.051.307 1.122 1.351.788 1.547-2.639 1.547-2.157 0-4.447-.525-5.089-1.167-.89-.89-1.32-.771-1.807.5-1.171 3.05.241 4.427 4.602 4.487 2.301.032 4.435.31 4.744.619.309.308-.639.561-2.105.561-3.471 0-3.466 1.773.006 2.184 1.47.174 2.893.991 3.163 1.816.422 1.294.258 1.309-1.198.107-.927-.765-1.976-1.102-2.331-.747-.355.354-1.452-.086-2.439-.979-.986-.893-2.485-1.358-3.331-1.034-2.109.81-1.944 3.649.213 3.668 1.488.013 1.526.157.255.961-1.283.811-1.212 1.159.5 2.453 2.552 1.928 3.495 1.947 3.495.071 0-.825.436-1.5.969-1.5s.709.675.393 1.5c-.428 1.114.159 1.508 2.281 1.532 3.487.039 6.179 1.941 5.616 3.968-1.134 4.079-1.633 4.308-2.18 1-.558-3.371-.754-3.511-5.329-3.805-2.857-.183-4.75.116-4.75.75 0 .58 1.546 1.055 3.437 1.055 3.146 0 3.463.275 3.75 3.25.187 1.946.815 3.15 1.563 3 .688-.138 1.25.156 1.25.652 0 .944 5.319 3.098 7.649 3.098.743 0 1.365-.787 1.383-1.75.03-1.667.095-1.667 1.36 0 1.427 1.88 4.608 2.398 4.608.75 0-.55-.498-1-1.107-1s-.869-.62-.578-1.378.063-1.844-.506-2.413-.732-1.524-.363-2.122c1.14-1.844 2.553-1.204 2.569 1.163.029 4.256 3.238 6.347 10.117 6.592 3.892.139 4.718-.16 5.164-1.867.293-1.118.908-1.966 1.368-1.885 2.698.474 3.335-.119 2.155-2.009-.94-1.505-.923-2.25.077-3.456 1.637-1.972.437-3.945-2.009-3.306-1.377.36-1.887-.038-1.887-1.472 0-1.081.45-1.687 1-1.347s1 .109 1-.512c0-1.382-2.498-3.988-3.822-3.988-1.331 0-2.336 2.928-1.489 4.34.526.877.344.879-.747.007-1.835-1.467-6.065-2.02-7.695-1.005-.911.567-.971 1.305-.219 2.71.676 1.263.708 3.059.093 5.19-.724 2.506-.961 2.739-1.031 1.008-.052-1.293-.728-2.25-1.59-2.25-.825 0-1.5-.45-1.5-1s.765-1 1.7-1c1.323 0 1.434-.266.499-1.201-.934-.934-1.937-.934-4.521 0-3.114 1.127-9.64 1.633-6.923.537.834-.336-.085-2.074-2.735-5.171-2.194-2.566-3.547-4.815-3.005-4.998.542-.184.985-1.355.985-2.604s1.225-3.574 2.722-5.167 2.582-3.547 2.411-4.342c-.233-1.082.026-1.178 1.028-.381 1.757 1.398 10.839 2.358 10.839 1.145 0-2.359 1.792.513 2.31 3.702.318 1.963 1.616 4.45 2.884 5.527 1.374 1.166 1.651 1.731.685 1.397-1.829-.631-3.133 1.73-2.241 4.056.741 1.931 3.759 1.931 5.362 0 .685-.825 1.817-1.5 2.515-1.5 1.665 0 2.489-2.27 1.791-4.936-.332-1.27.126-2.884 1.134-3.998.996-1.101 1.288-2.116.711-2.473-.539-.333-1.208-.04-1.487.651-.545 1.351-1.012-1.582-.716-4.494.128-1.258-.543-1.75-2.385-1.75-2.067 0-2.563-.484-2.563-2.5 0-1.375-.482-2.5-1.07-2.5-.686 0-.946 2.334-.724 6.5.363 6.821-.859 9.23-1.396 2.75-.194-2.345-.778-3.656-1.56-3.5-.687.138-1.25-.65-1.25-1.75s-.45-2-1-2-1-.388-1-.861c0-.474 1.184-.635 2.631-.359 1.955.374 2.5.146 2.125-.888-.279-.766-1.012-1.28-1.631-1.142S162 122.55 162 122s-.675-1-1.5-1-1.5.45-1.5 1-.436 1-.969 1-.709-.675-.393-1.5c.4-1.041-.069-1.5-1.531-1.5-1.159 0-2.107.466-2.107 1.035 0 .714-.601.714-1.934 0-2.018-1.08-2.405-1.104-5.373-.335m44.314.893c-5.022 2.178-7.879 5.218-9.074 9.657-2.098 7.791 2.552 14.279 13.386 18.676 3.124 1.269 5.681 2.92 5.681 3.671 0 2.444-4.587 2.679-9.538.489-2.594-1.147-5.022-2.086-5.397-2.086-.692 0-7.065 8.634-7.065 9.572 0 .282 2.813 1.843 6.25 3.47 18.382 8.696 37.118-3.816 29.06-19.407-1.065-2.062-3.695-3.884-9.382-6.5-4.346-1.999-7.908-4.149-7.915-4.778-.025-2.198 3.214-2.35 7.709-.362 2.493 1.103 4.624 2.005 4.736 2.005 1.018 0 6.5-9.259 5.98-10.1-.376-.608-2.99-2.18-5.811-3.493-5.966-2.778-13.346-3.101-18.62-.814M71 121.882c0 .55.45 1.278 1 1.618s1 .168 1-.382-.45-1.278-1-1.618-1-.168-1 .382m-32.65 2.126c.629 2.785-.094 4.404-2.35 5.263-.882.336-.379.604 1.219.65 1.642.048 2.598.574 2.414 1.329-.168.688-.116.91.116.494s.946-.451 1.586-.078.384-.216-.571-1.308c-1.265-1.446-1.437-2.285-.635-3.087.803-.803.634-1.736-.621-3.437l-1.724-2.334zm38.861-.716c-.53.664-.682 1.9-.337 2.746.559 1.373.794 1.367 2.189-.063 1.228-1.257 1.3-1.847.337-2.746-.921-.861-1.464-.845-2.189.063m-26.352.414c-2.258.347-2.621.87-2.5 3.6.131 2.963-.076 3.177-2.859 2.953-2.834-.228-2.87-.186-.656.753 1.29.546 2.58 1.892 2.867 2.991.619 2.365 1.845 2.595 2.651.497.316-.825.139-1.5-.393-1.5-1.765 0-1.004-2.998.781-3.079 1.045-.047 1.247-.282.5-.583-.687-.278-1.25-1.367-1.25-2.421 0-1.472.711-1.917 3.059-1.917 1.785 0 2.802-.417 2.441-1-.34-.55-.929-.933-1.309-.85-.38.082-1.88.332-3.332.556m92.694 1.209a1.116 1.116 0 0 0 .362 1.532c.521.322 1.21.159 1.532-.362a1.116 1.116 0 0 0-.362-1.532 1.116 1.116 0 0 0-1.532.362M43.25 126.25c.228.688 1.164 1.395 2.079 1.573 1.16.225 1.481-.154 1.061-1.25-.71-1.849-3.753-2.162-3.14-.323m93.75.25c-1.02 1.229-.951 1.5.378 1.5.892 0 1.622-.675 1.622-1.5s-.17-1.5-.378-1.5c-.207 0-.937.675-1.622 1.5m-56 .5c0 .55.702 1 1.559 1s1.281-.45.941-1-1.041-1-1.559-1-.941.45-.941 1m88 0c0 .55.477 1 1.059 1s.781-.45.441-1-.816-1-1.059-1-.441.45-.441 1m-116.036 4.164c-1.145 2.233-1.118 2.26.61.61.994-.95 1.533-2.001 1.197-2.336s-1.148.442-1.807 1.726M63 130c0 .55.45 1 1 1s1-.45 1-1-.45-1-1-1-1 .45-1 1m7.558.907c-.309.498.34.671 1.441.383 2.335-.611 2.63-1.29.56-1.29-.793 0-1.693.408-2.001.907M38.5 140c-1.908.82-1.897.863.25.93 1.237.038 2.25-.38 2.25-.93s-.112-.968-.25-.93c-.138.039-1.15.457-2.25.93m6.5.5c0 .825.177 1.5.393 1.5s.652-.675.969-1.5.139-1.5-.393-1.5c-.533 0-.969.675-.969 1.5m129.341-.055c.362.945.659 2.132.659 2.637s.481.918 1.07.918c1.554 0 .687-4.259-.979-4.808-.99-.326-1.213.047-.75 1.253M48 142.059c0 .582.45.781 1 .441s1-.816 1-1.059-.45-.441-1-.441-1 .477-1 1.059M38.642 146c.629.825 1.364 2.4 1.634 3.5.467 1.9.498 1.893.608-.128.064-1.17-.672-2.745-1.634-3.5-1.522-1.193-1.601-1.177-.608.128m3.171-.317c.721.289 1.584.253 1.916-.079s-.258-.568-1.312-.525c-1.165.048-1.402.285-.604.604m5.151 1.481c-1.145 2.233-1.118 2.26.61.61.994-.95 1.533-2.001 1.197-2.336s-1.148.442-1.807 1.726m127.224-1.101c.24.721 1.028 1.509 1.75 1.75.75.25 1.125-.125.875-.875-.241-.722-1.029-1.51-1.75-1.75-.75-.25-1.125.125-.875.875M34 151.715c0 .118.855.672 1.9 1.232 1.372.733 2.032.674 2.373-.215.292-.763-.432-1.232-1.9-1.232-1.305 0-2.373.097-2.373.215m101 7.044c0 .418.9 1.322 2 2.009 1.751 1.093 2 .999 2-.76 0-1.341-.664-2.008-2-2.008-1.1 0-2 .342-2 .759m-100.474 2.2c-.359.58.07 1.333.954 1.672 2.2.844 2.884-.084 1.133-1.537-.985-.818-1.639-.86-2.087-.135m130.935 3.105c-.319.515.573.936 1.98.936s2.559-.354 2.559-.787c0-1.135-3.852-1.262-4.539-.149M175 166c0 .55.423 1 .941 1s1.219-.45 1.559-1-.084-1-.941-1-1.559.45-1.559 1"/><path fill="#1976D2" fill-opacity=".171" fill-rule="evenodd" d="M76.25 79.75c28.463.147 75.038.147 103.5 0 28.463-.148 5.175-.268-51.75-.268s-80.212.12-51.75.268m156.563.933c.721.289 1.584.253 1.916-.079s-.258-.568-1.312-.525c-1.165.048-1.402.285-.604.604M14.4 83.833c-2.145 1.559-4.558 3.696-5.362 4.75s-.129.725 1.5-.731S15.075 84.26 17 83.106s3.005-2.1 2.4-2.102-2.855 1.271-5 2.829m226.231.417c3.053 2.043 6.065 5.275 8.113 8.706 1.791 3 3.256 5.001 3.256 4.446C252 93.612 240.263 81 236.737 81c-.53 0 1.222 1.463 3.894 3.25M40.742 89.11c-.967.549-2.146.758-2.621.465-.474-.293-1.89.357-3.145 1.446-1.488 1.29-1.794 1.984-.879 1.994 1.142.013 1.156.172.079.855s-1.036 1.128.222 2.385c1.358 1.358 1.367 1.695.074 2.768-1.704 1.414-1.776 1.948-.533 3.913.759 1.199 1.172 1.217 2.507.109.886-.736 1.352-2.105 1.046-3.07-.4-1.26.146-1.918 1.972-2.377 1.388-.348 2.474-.963 2.412-1.366-.062-.402-.06-1.745.006-2.982.172-3.283 2.705-2.807 2.657.5-.032 2.277.391 2.75 2.461 2.75 1.793 0 2.586-.605 2.805-2.142.225-1.572.823-2.007 2.25-1.633 1.07.279 1.945.043 1.945-.527 0-1.445 7.269-.892 7.763.591.619 1.858 4.237 1.468 4.237-.456 0-.916.296-1.37.658-1.008s1.262.156 2-.456c.93-.772 1.342-.784 1.342-.041 0 .59-.787 1.531-1.75 2.092s-1.224 1.033-.582 1.05c.643.016 1.88.303 2.75.637 1.038.398 1.582.055 1.582-1 0-.884.675-1.607 1.5-1.607.933 0 1.5.944 1.5 2.5 0 2 .5 2.5 2.5 2.5 2.98 0 3.308-2.213.703-4.75-2.302-2.242-3.185-2.373-18.459-2.734-7.016-.167-13.766-.55-15-.854s-3.035-.101-4.002.448m-35.29 4.983c-.88 1.701-1.422 3.27-1.205 3.487s1.143-1.174 2.058-3.093c2.056-4.312 1.344-4.642-.853-.394m47.077.262C50.404 95.909 51.058 99 53.512 99c.946 0 1.458.7 1.282 1.75-.242 1.443.54 1.781 4.456 1.929 3.442.129 4.75-.199 4.75-1.191 0-1.76-1.68-2.816-2.463-1.548-.872 1.411-3.414.165-4.71-2.308-1.108-2.113-1.099-2.115 1.027-.227 1.811 1.608 2.146 1.66 2.146.332 0-4.613-3.574-6.231-7.471-3.382M64 96.09c0 .566-.45.75-1 .41-1.666-1.03-1.124.451 1 2.73 1.1 1.181 2 1.649 2 1.04 0-.608.251-1.76.557-2.559s-.143-1.722-1-2.051c-.856-.328-1.557-.135-1.557.43m17.473-.046c-.794 1.285 1.292 3.956 3.09 3.956 2.003 0 2.757-1.909 1.401-3.544-1.413-1.702-3.571-1.9-4.491-.412M69.882 97.25c-.066.688-.054 1.778.026 2.424s-.767 1.464-1.882 1.818c-2.065.655-2.547 1.653-1.368 2.833.362.362 1.262.156 2-.456 1.027-.852 1.342-.74 1.342.477 0 1.099.542 1.388 1.75.935 1.429-.535 1.534-.39.575.793-.879 1.085-.898 2.486-.075 5.57.878 3.288 1.772 4.384 4.425 5.425 1.829.717 3.325 1.718 3.325 2.225 0 .506-.787.596-1.75.2-3.66-1.507-5.477-1.748-6.102-.809-.938 1.406-7.152 4.315-9.218 4.315-.97 0-1.933.51-2.141 1.134-.248.743-.941.571-2.012-.5C56.948 121.805 55 121.478 55 123c0 .55.45 1 1 1s.887.563.75 1.25c-.144.721.703 1.216 2 1.171 1.237-.044 2.25.293 2.25.75 0 1.257 3.438.991 4.8-.371.66-.66 1.23-.773 1.267-.25.038.522.259 2.413.492 4.2.307 2.352.028 3.25-1.008 3.25-.788 0-1.711-.45-2.051-1s-1.521-1-2.625-1c-1.6 0-1.944.558-1.691 2.75.212 1.848.808 2.632 1.816 2.389.825-.198 2.85-.489 4.5-.645 2.409-.228 2.951-.708 2.754-2.435-.328-2.858 1.702-4.886 4.216-4.214 1.863.497 1.824.594-.47 1.17-1.903.479-2.435 1.194-2.228 2.995.358 3.127.511 3.213 3.589 2.043 1.721-.655 2.639-1.75 2.639-3.151 0-1.795.246-1.943 1.5-.902 1.229 1.02 1.5.951 1.5-.378 0-1.911 1.626-2.174 2.304-.372.663 1.764 6.696-4.852 6.696-7.343 0-1.083.675-2.229 1.5-2.545 2.203-.846 1.828-3.362-.5-3.362-1.178 0-2-.667-2-1.622 0-1.259.306-1.369 1.367-.488 1.04.862 1.665.776 2.609-.361 1.035-1.247.796-1.665-1.432-2.512-1.471-.56-3.17-1.017-3.776-1.017s-.817-.284-.47-.631c1.093-1.093-1.327-4.446-2.996-4.151-.877.155-1.812-.343-2.078-1.107-.296-.851-.043-1.117.653-.687 1.377.851 2.592-1.857 1.573-3.505-.52-.841-.986-.713-1.638.453-1.333 2.381-3.483 1.987-3.391-.622.048-1.369-.509-2.25-1.421-2.25-.918 0-1.468.883-1.418 2.277.046 1.253-.404 2.104-1 1.891-.595-.212-.984-1.67-.865-3.238.197-2.589-1.003-4.375-2.967-4.415-.412-.008-.803.548-.868 1.235M45 100c0 1.506.522 2.046 1.75 1.81.962-.186 1.75-1 1.75-1.81s-.788-1.624-1.75-1.81c-1.228-.236-1.75.304-1.75 1.81m-41.921.583c.048 1.165.285 1.402.604.605.289-.722.253-1.585-.079-1.917s-.568.258-.525 1.312m37.427.411c-1.631 1.802-1.648 2.006-.161 2.006.91 0 1.655.45 1.655 1 0 1.047-.591 1.196-5.5 1.385-2.295.088-3 .585-3 2.115 0 1.467.667 2 2.5 2 2.366 0 6 2.818 6 4.653 0 .466.675.847 1.5.847 1.353 0 1.944 1.187 1.618 3.25-.065.412.332.75.882.75 1.197 0 1.308-.847 1.048-8-.134-3.697-.729-5.91-1.815-6.75-.889-.688-1.721-1.967-1.849-2.842-.366-2.491-.926-2.572-2.878-.414m211.652.006c0 1.375.227 1.938.504 1.25.278-.687.278-1.812 0-2.5-.277-.687-.504-.125-.504 1.25m-203.466 1.347c-1.107 1.69-1.274 2.626-.514 2.879.62.207 1.246 1.478 1.391 2.825s.302 2.787.348 3.199.809.75 1.697.75c1.357 0 1.501-.753.905-4.75-1.028-6.891-1.841-7.933-3.827-4.903m37.308.082c0 .785.675 2.103 1.5 2.928s1.5 2.432 1.5 3.572c0 1.174.649 2.071 1.5 2.071.933 0 1.5-.944 1.5-2.5 0-1.375-.477-2.5-1.059-2.5s-.806-.409-.497-.91c.309-.5.288-1.625-.048-2.5-.758-1.977-4.396-2.111-4.396-.161m-13 6.801c0 .93.967 1.768 2.25 1.95 1.603.228 2.227.967 2.171 2.57-.099 2.796 1.157 2.907 2.59.229 1.363-2.547.51-3.979-2.37-3.979-1.233 0-2.781-.54-3.441-1.2-.933-.933-1.2-.838-1.2.43m-38.953 3.214c-1.37 1.65-.617 3.556 1.405 3.556 1.911 0 2.667-2.657 1.121-3.939-.961-.798-1.63-.697-2.526.383m15.411 4.989c-.543 3.622-.961 4.248-2.554 3.832-1.135-.297-1.904.015-1.904.773 0 .904-.513.808-1.773-.332-2.412-2.183-4.849-.737-3.382 2.005.579 1.081.792 2.96.474 4.175-.536 2.053-.271 2.192 3.733 1.956 2.677-.158 4.463.203 4.713.952.221.663 1.125 1.206 2.009 1.206 1.418 0 1.405-.149-.111-1.257-.946-.692-1.82-2.605-1.942-4.25-.191-2.584.088-2.95 2.036-2.679 2.47.344 3.93-1.9 2.612-4.016-.444-.714-.684-2.253-.533-3.42.15-1.168-.401-2.381-1.228-2.698-1.142-.438-1.656.46-2.15 3.753m32.557-3.753c.009.451.413 1.448.899 2.216 1.061 1.675 4.438.667 3.841-1.147-.458-1.39-4.764-2.362-4.74-1.069M37.5 117c-.34.55-1.491 1-2.559 1S33 118.45 33 119s.702 1 1.559 1 1.281.45.941 1c-.873 1.413 1.853 1.247 3.3-.2 1.422-1.422 1.605-4.8.259-4.8-.518 0-1.219.45-1.559 1m5.043.931c-.317.512-.118 1.213.441 1.559s1.016-.074 1.016-.931c0-1.757-.6-2.015-1.457-.628M82 118.941c0 .518.481 1.238 1.068 1.601s.827 1.29.532 2.059c-.722 1.881 1.833 1.787 3.42-.125.696-.838 1.088-1.626.873-1.75-5.27-3.032-5.893-3.221-5.893-1.785m19.23 1.609c-5.356 1.442-11.23 4.072-11.23 5.028 0 .407 2.387 5.119 4.709 9.297.114.207 2.036-.356 4.27-1.25 5.103-2.042 10.393-2.086 12.041-.101 1.709 2.06 1.183 2.4-6.392 4.127-3.601.822-8.028 2.48-9.838 3.685-7.561 5.034-8.619 15.035-2.264 21.39 2.899 2.899 3.899 3.274 8.734 3.274 4.192 0 6.327-.587 9.187-2.528 3.64-2.471 3.738-2.482 4.256-.5.463 1.77 1.342 2.028 6.914 2.028H128l-.006-14.75c-.003-8.113-.499-16.529-1.103-18.703-1.403-5.055-6.383-10.035-11.438-11.438-5.036-1.398-7.696-1.316-14.223.441m47.301.4c-.368.595-1.057.843-1.531.55-1.529-.945-2.026 1.234-.559 2.451 1.132.94 1.653.743 2.57-.972 1.172-2.189.742-4.006-.48-2.029m6.88 1.55c.463 1.845.229 2.5-.892 2.5a1.514 1.514 0 0 1-1.519-1.5c0-.825-.372-1.5-.827-1.5s-.628 1.35-.386 3c.422 2.879-1.184 4.309-2.021 1.799-.311-.934-.564-.934-1.142 0-.408.661-.265 1.201.317 1.201s1.059 1.073 1.059 2.384c0 2.003.452 2.348 2.836 2.16 1.559-.122 3.359-.547 4-.942.695-.43 1.164-.093 1.164.839 0 .857.414 1.559.921 1.559 1.304 0 2.285-5.208 1.624-8.622-.306-1.583-.292-2.315.032-1.628.793 1.682 3.423 1.596 3.423-.111 0-.936-1.071-1.275-3.435-1.088-2.616.208-3.305-.064-2.893-1.139.337-.878-.107-1.412-1.173-1.412-1.331 0-1.575.561-1.088 2.5m-84.813-.764C69.394 122.939 70.051 124 72 124c1.1 0 2-.402 2-.893 0-1.124-2.601-2.173-3.402-1.371m119.852.671c-4.964 2.162-8.451 7.082-8.446 11.92.006 6.6 2.771 10.001 11.501 14.143 5.639 2.676 7.54 4.063 7.301 5.324-.473 2.495-5.024 2.646-10.236.34l-4.502-1.991-3.034 4.125c-1.669 2.269-3.034 4.443-3.034 4.83s1.688 1.74 3.75 3.006c3.202 1.965 5.139 2.308 13.25 2.349 8.389.041 9.882-.225 12.765-2.282 4.146-2.957 6.235-6.992 6.235-12.045 0-6.409-3.475-9.646-15.791-14.704-2.849-1.17-4.19-2.293-3.991-3.342.429-2.267 5.103-2.496 9.395-.459l3.682 1.747 2.402-2.934c4.779-5.837 4.759-6.028-.903-8.85-5.894-2.936-15.084-3.469-20.344-1.177m-113.56-.157c-.06.138-.237 1.815-.394 3.729l-.285 3.479 1.887-2.331c1.604-1.98 1.979-2.089 2.501-.728.338.88 1.579 1.587 2.758 1.569 2.127-.031 2.128-.043.143-1.519a96 96 0 0 1-3.761-2.968c-1.661-1.396-2.599-1.801-2.849-1.231M34 125.927c0 2.439.426 3.073 2.066 3.073 1.663 0 2.005-.535 1.75-2.741-.19-1.654-1.011-2.874-2.066-3.074-1.359-.258-1.75.355-1.75 2.742m106.667-2.26c-.367.366-.667 1.913-.667 3.436 0 2.376-.463 2.828-3.25 3.174-2.817.349-2.684.424 1 .563l4.25.16v-4c0-4.087-.166-4.501-1.333-3.333m-97.331 1.9c-.788 2.054.794 3.589 2.568 2.492 1.511-.934.815-4.059-.904-4.059-.585 0-1.333.705-1.664 1.567M166 127.441c0 3.473.091 3.555 3.75 3.409 3.016-.12 3.212-.231 1-.566-2.111-.32-2.75-.969-2.75-2.791 0-1.306-.45-2.653-1-2.993-.595-.368-1 .823-1 2.941m-115.813-.691c.183.963 1.341 1.894 2.573 2.07 1.701.242 2.24-.179 2.24-1.75 0-1.557-.638-2.07-2.573-2.07-1.912 0-2.488.45-2.24 1.75M70 127c-.901.582-1.025.975-.309.985.655.008 1.469-.435 1.809-.985.767-1.242.421-1.242-1.5 0m66.5 0c-.34.55.084 1 .941 1s1.559-.45 1.559-1-.423-1-.941-1-1.219.45-1.559 1m6.836 2.567c-.331.862-.145 2.024.414 2.583.686.686.526 1.995-.497 4.045-1.453 2.913-1.722 3.014-6.883 2.586-4.598-.382-5.37-.197-5.37 1.287 0 1.322.852 1.732 3.6 1.732 4.565 0 7.171 2.137 2.85 2.336-2.604.12-2.667.19-.538.591 2.746.518 5.658 3.036 4.662 4.033-.366.365-1.544.115-2.619-.556-1.454-.908-1.955-.923-1.955-.057 0 .705-.72.511-1.829-.492-2.264-2.049-4.171-2.134-4.171-.186 0 .894.586 1.243 1.5.893 2.092-.803 1.885 1.315-.25 2.558-1.579.919-1.587 1.022-.083 1.05.916.016 1.899.593 2.182 1.28.313.757.786.363 1.2-1 .726-2.389 1.932-2.899 2.951-1.25.34.55.141 1-.441 1s-1.059.501-1.059 1.113c0 .669 1.199.938 3 .674 1.65-.242 3-.038 3 .454 0 .814 3.853.102 4.971-.92.786-.717-2.307-2.231-3.303-1.616-.51.315-.701-.052-.425-.816s-.406-2.388-1.517-3.61c-1.639-1.801-1.787-2.501-.787-3.706.678-.817.952-1.94.609-2.495s.618-2.404 2.136-4.108c2.444-2.743 2.857-4.099 2.427-7.97-.177-1.596-3.114-1.155-3.775.567M56 129.831c0 .457-1.125 1.433-2.5 2.169s-2.5 1.65-2.5 2.03c0 .381 1.125.478 2.5.215S56 133.422 56 133s.945-1.014 2.101-1.316 1.804-1.029 1.441-1.617c-.777-1.257-3.542-1.441-3.542-.236m-20.75.875q-3.7.714-1.147 5.487c.607 1.134.72 2.342.25 2.684-1.177.859-1.056 4.085.158 4.199.544.052 1.625.618 2.402 1.259 1.079.89 1.509.879 1.821-.049.295-.876.876-.924 2.087-.173 2.406 1.491 6.771-.424 7.49-3.286l.585-2.327-1.948 2.361c-1.071 1.298-1.948 1.887-1.948 1.307 0-.579-1.901-1.191-4.225-1.361l-4.225-.307 2.789-1.258c1.533-.691 2.525-.831 2.203-.31s.324.878 1.436.795C44.09 139.643 45 139.316 45 139s1.35-.677 3-.803c3.376-.257 3.362-.28 2.025 3.238-.662 1.741-.639 2.565.071 2.565.597 0 .479.597-.275 1.389-.726.764-2.165 2.556-3.197 3.981-1.032 1.426-2.308 2.325-2.837 1.998-.528-.326.541-2.169 2.376-4.096 3.15-3.306 3.197-3.456.837-2.686-1.375.449-3.479.838-4.675.865-1.832.041-2.088.482-1.625 2.799.339 1.696.119 2.75-.575 2.75-.619 0-1.139 1.012-1.157 2.25-.037 2.644-1.761 5.109-4.218 6.031-2.028.76-2.275 2.794-.55 4.519 1.576 1.576 4.796 1.543 4.815-.05.011-.851.25-.904.75-.165.86 1.27 14.235 1.625 14.235.378 0-.465-.452-1.124-1.004-1.465s-.721-1.746-.376-3.121c.504-2.006.197-2.612-1.553-3.07-1.538-.402-1.98-1.047-1.501-2.188.374-.891 1.187-2.969 1.807-4.619s1.352-3.225 1.627-3.5c.96-.96.49-3.508-.84-4.553-1.107-.869-1.063-1.282.25-2.372 2.89-2.399 1.952-4.122-1.91-3.508-2.714.432-3.5.214-3.5-.97 0-1.86-2.946-3.517-5-2.812-2.05.704-2.889 2.193-2.468 4.38.194 1.009-.019 1.835-.473 1.835-1.16 0-1.978-4.932-.925-5.583 1.061-.656 1.154-2.469.116-2.281-.413.075-1.763.331-3 .57m126.75.397c-1.128.789-1.19 1.175-.25 1.556.688.279 1.25 1.802 1.25 3.384 0 1.826 1.004 3.847 2.75 5.536 2.603 2.517 2.63 2.631.5 2.134-1.862-.435-2.25-.105-2.25 1.912 0 3.429 2.602 4.075 4.969 1.233 1.08-1.297 1.979-1.965 1.998-1.486s.714.308 1.545-.382c1.187-.985 1.257-1.564.323-2.688-.935-1.127-.8-2.091.632-4.516 1.002-1.695 1.334-2.781.738-2.413-.595.368-1.588-.128-2.207-1.102-.937-1.477-1.023-1.298-.518 1.077.442 2.074.256 2.732-.686 2.422-.712-.235-1.438-1.404-1.614-2.598-.175-1.195-.963-2.172-1.75-2.172-1.763 0-1.863 2.151-.18 3.897 1.011 1.049.868 1.229-.75.94-1.458-.26-2.135-1.363-2.5-4.07-.412-3.056-.765-3.528-2-2.664m-105.333 2.564c-1.151 1.15-.729 2.333.833 2.333.825 0 1.5-.675 1.5-1.5 0-1.562-1.183-1.984-2.333-.833M132 134.5c0 1.475 1.662 1.983 5.383 1.647 1.036-.094 2.452.301 3.147.878.965.801 1.228.45 1.116-1.488-.171-2.968-.465-3.052-3.423-.98-2.012 1.409-2.223 1.409-2.223 0 0-.89-.857-1.557-2-1.557-1.111 0-2 .667-2 1.5m42.032 5.128c.017.479.692 1.746 1.5 2.813 1.175 1.554 1.468 1.628 1.468.373 0-.863-.675-2.129-1.5-2.814s-1.486-.852-1.468-.372M34.38 147.452c-.769 2.003.372 3.548 2.62 3.548 2.301 0 3.209-1.292 2.396-3.41-.763-1.99-4.268-2.086-5.016-.138m135.946 1.018c-.869.949-.882 1.574-.05 2.406 1.333 1.333.494 1.371-4.531.204-4.308-1-5.366-.098-3.529 3.01 1.022 1.728 1.029 2.264.034 2.624-1.479.535-1.703 5.286-.25 5.286.55 0 1 .9 1 2s.625 2 1.389 2 1.368-.562 1.342-1.25c-.025-.687.039-2.15.143-3.25.187-1.974.209-1.975 1.658-.059.807 1.068 1.475 1.518 1.483 1 .009-.517.442-.266.964.559.685 1.083.472 1.688-.766 2.179-1.259.5-.984.699 1.037.751 1.809.046 2.75-.443 2.75-1.43 0-.825.675-1.5 1.5-1.5.92 0 1.5-.935 1.5-2.418 0-1.33.273-3.13.607-4 .435-1.134.01-1.582-1.5-1.582-2.224 0-3.086-3.507-1.03-4.192.62-.207.302-1.051-.75-1.99-1.478-1.32-2.051-1.386-3.001-.348M33 152.477c0 .838.48 1.523 1.067 1.523.624 0 .795.859.413 2.063-.596 1.878-.467 1.946 1.433.76 2.682-1.676 2.627-2.239-.413-4.231-2.189-1.434-2.5-1.448-2.5-.115m-29.921 2.106c.048 1.165.285 1.402.604.605.289-.722.253-1.585-.079-1.917s-.568.258-.525 1.312m249 0c.048 1.165.285 1.402.604.605.289-.722.253-1.585-.079-1.917s-.568.258-.525 1.312m-99.615.476c-.384.621-1.905.783-3.684.393-2.098-.461-2.82-.325-2.346.441.376.609.207 1.107-.375 1.107S145 158.088 145 159.417s-.562 2.606-1.25 2.837c-2.456.827 1.342 3.746 4.872 3.746 2.539 0 3.386-.435 3.408-1.75.029-1.667.079-1.667 1.05 0 .561.963 2.01 1.698 3.22 1.634 1.801-.095 1.869-.202.377-.587-1.003-.26-1.607-1.036-1.343-1.725.265-.689.106-1.86-.352-2.601-.499-.808-.262-2.16.593-3.381.784-1.119 1.425-2.385 1.425-2.813 0-1.169-3.785-.934-4.536.282M134 156.06c0 .517 1.35.94 3 .94 2.667 0 3 .333 3 3 0 1.65.45 3 1 3 1.487 0 1.241-6.978-.25-7.114a210 210 0 0 1-4-.44c-1.512-.179-2.75.097-2.75.614m24 3.818c0 1.582.753 3.495 1.673 4.25 1.503 1.232 1.606 1.117 1.014-1.128-.363-1.375-.666-3.287-.673-4.25S159.55 157 159 157s-1 1.295-1 2.878m92.624-1.339c-.965 2.514-.681 3.163.498 1.136.584-1.004.851-2.036.593-2.293-.257-.258-.749.263-1.091 1.157M136 159.378c0 .207.675.937 1.5 1.622 1.229 1.02 1.5.951 1.5-.378 0-.892-.675-1.622-1.5-1.622s-1.5.17-1.5.378m-101.511 1.64c-.915 1.48-.047 2.237 2.088 1.82 1.563-.304 1.579-.467.168-1.637-1.125-.932-1.761-.983-2.256-.183M6 162.356c0 2.731 14.084 13.893 15.607 12.37.227-.227-1.428-1.243-3.678-2.258s-5.854-3.848-8.01-6.297S6 162.005 6 162.356m238.437 5.894-2.937 3.25 3.25-2.937c3.029-2.738 3.71-3.563 2.937-3.563-.172 0-1.635 1.463-3.25 3.25m-7.937 4.805c-2.2 1.041-3.415 1.904-2.7 1.919 1.455.029 7.2-2.763 7.2-3.5 0-.585.296-.689-4.5 1.581m-212.231 2.638c.973.254 2.323.237 3-.037s-.119-.481-1.769-.461-2.204.244-1.231.498m204 0c.973.254 2.323.237 3-.037s-.119-.481-1.769-.461-2.204.244-1.231.498"/><path fill="#1976D2" fill-opacity=".986" fill-rule="evenodd" d="M56 90c-1.165.753-.872.973 1.309.985 1.621.009 2.548-.408 2.191-.985-.767-1.242-1.579-1.242-3.5 0m7.75-.243c-2.091.465-2.373 4.243-.317 4.243.788 0 1.729-.934 2.091-2.075.773-2.435.566-2.688-1.774-2.168m-18.152.979c-1.015 1.014-.66 4.107.557 4.859.715.443.883.275.44-.44-.392-.635-.274-1.155.263-1.155.536 0 1.202.563 1.48 1.25.277.688.54.061.583-1.393.074-2.485-2.006-4.439-3.323-3.121m23.152 1.347C67.787 93.138 67.48 94 68.066 94 69.776 94 73 92.017 73 90.965c0-1.569-2.365-.946-4.25 1.118m-33.157.535c-.362.944-.224 2.151.307 2.682 1.445 1.445 4.297-.039 3.912-2.035-.45-2.341-3.396-2.792-4.219-.647m40.067.574c-.71 2.715.328 4.052 2.231 2.875 1.156-.714 1.135-1.192-.131-2.999l-1.505-2.15zM52 96.5c0 1.689.458 2.514 1.25 2.25.688-.229 1.25-1.242 1.25-2.25s-.562-2.021-1.25-2.25c-.792-.264-1.25.561-1.25 2.25m6 .559c0 .582.45.781 1 .441s1-.816 1-1.059S59.55 96 59 96s-1 .477-1 1.059m24.57-.172c-.301.487.082 1.409.852 2.048 1.559 1.294 3.155-.193 2.078-1.935-.765-1.238-2.2-1.294-2.93-.113m-11.876.752c-1.065 1.065.27 2.312 1.832 1.713.805-.309 1.214-.964.909-1.457-.648-1.049-1.837-1.16-2.741-.256m-14.463 2.882c.113 1.363.756 2.479 1.428 2.479 2.152 0 2.298-1.592.303-3.301-1.843-1.577-1.926-1.538-1.731.822M34 101.417c0 .87.712 1.583 1.583 1.583s1.406-.534 1.188-1.187c-.618-1.855-2.771-2.162-2.771-.396m6.981.106c-1.057 1.273-.995 1.42.378.893.902-.347 1.641-1.032 1.641-1.523 0-1.286-.579-1.105-2.019.63M49.5 101c-.34.55-.141 1 .441 1S51 101.55 51 101s-.198-1-.441-1-.719.45-1.059 1m12.5.441c0 .857.45 1.559 1 1.559s1-.423 1-.941-.45-1.219-1-1.559-1 .084-1 .941m6.25.221c-.687.278-1.25.965-1.25 1.528s.675.765 1.5.448c.972-.373 1.505.029 1.515 1.143.013 1.476.153 1.507.985.219 2.072-3.206.788-4.765-2.75-3.338m17.765.588c.028 2.285 1.624 3.826 3.297 3.184 1.28-.491 1.422-1.062.635-2.534-1.137-2.123-3.955-2.589-3.932-.65M81 103.5c-1.351 1.628-1.028 1.832 1.418.893.87-.334 1.582-1.009 1.582-1.5 0-1.383-1.62-1.055-3 .607m-32.463.439c-.319.517.329.871 1.441.788 1.112-.084 2.022-.507 2.022-.94 0-1.106-2.76-.984-3.463.152M73 105.296c0 1.525.925 2.861 2.601 3.758 2.331 1.248 2.743 1.196 3.983-.499 1.041-1.425 1.103-2.228.249-3.256-.623-.751-1.628-1.186-2.233-.967s-1.887-.007-2.85-.502c-1.427-.734-1.75-.464-1.75 1.466m-32.422.24c-2.009 1.048-3.131 1.187-3.589.447-.447-.724-1.063-.599-1.876.381-1.379 1.661-.084 2.946 2.119 2.101.887-.341 2.075.689 3.197 2.773.982 1.823 2.767 3.779 3.968 4.345 2.107.995 2.181.838 2.144-4.526-.033-4.869-.804-7.004-2.541-7.036-.275-.005-1.815.677-3.422 1.515M89 108.25c0 .779.688 1.417 1.528 1.417 1.729 0 1.473-1.833-.34-2.438-.654-.218-1.188.242-1.188 1.021m-38.5.75c-.399.646-.276 1.624.274 2.174q1 1 1.726-.174c.399-.646.276-1.624-.274-2.174q-1-1-1.726.174m31.124.538c-.653 1.702 1.641 3.034 3.377 1.962.786-.486.765-1.077-.075-2.089-1.517-1.828-2.568-1.787-3.302.127M34.5 113c-.399.646-.276 1.624.274 2.174q1 1 1.726-.174c.399-.646.276-1.624-.274-2.174q-1-1-1.726.174m52 0c.34.55 1.266 1 2.059 1s1.441.45 1.441 1 .45 1 1 1c1.98 0 .949-2.78-1.25-3.37-3.201-.858-3.956-.772-3.25.37M50 115c0 1.867.267 2.133 1.2 1.2s.933-1.467 0-2.4-1.2-.667-1.2 1.2m24-.441c0 .857.457 1.276 1.016.931.559-.346.758-1.047.441-1.559-.857-1.387-1.457-1.129-1.457.628m6.187.092c-1.018 1.903-.821 2.172 2.001 2.737 1.722.344 3.36.398 3.638.119.279-.279-.174-.507-1.007-.507-.832 0-1.961-1.003-2.508-2.229l-.995-2.23zM37.5 117c-.34.55-1.518 1-2.618 1s-1.757.394-1.459.875c1.037 1.678 5.392.94 5.899-1 .516-1.971-.765-2.586-1.822-.875m11.5 3.427c0 1.935.513 2.573 2.07 2.573 1.571 0 1.992-.539 1.75-2.24-.475-3.324-3.82-3.616-3.82-.333m23.461-1.364c-.361.585.135 1.938 1.103 3.008 1.644 1.816 1.882 1.835 3.589.291 1.733-1.569 1.737-1.724.088-2.977-2.129-1.616-3.906-1.736-4.78-.322m17.122-.197c-.431.697-.513 1.537-.183 1.867.895.895 1.871-.421 1.387-1.871-.338-1.016-.574-1.016-1.204.004m-49.919 2.803c-.367.368.076 1.491.986 2.496 1.265 1.398 1.974 1.562 3.014.699 1.028-.853 1.083-1.463.226-2.497-1.217-1.467-3.139-1.784-4.226-.698m26.336.318c-.825.478-2.288 1.112-3.25 1.409-2.73.844-2.155 3.604.75 3.604 1.375 0 2.5-.45 2.5-1s.675-1 1.5-1 1.5.505 1.5 1.122c0 .732.572.648 1.644-.242 1.455-1.207 1.567-1.121.972.754-.752 2.37 1.29 3.328 7.142 3.352 2.988.013 3.157-.149 2.035-1.946-1.082-1.732-1.412-1.79-2.837-.5-2.199 1.99-2.866 1.833-2.249-.528.536-2.05.124-2.329-5.155-3.497-2.276-.504-2.618-.861-1.5-1.568 1.25-.791 1.243-.91-.052-.873-.825.024-2.175.435-3 .913M46 123c0 .55.45 1 1 1s1-.45 1-1-.45-1-1-1-1 .45-1 1m40.049.441c-.657.792-1.837 1.194-2.622.893-.785-.302-1.427-.021-1.427.622 0 1.959 6.431.82 6.815-1.206.402-2.119-1.122-2.289-2.766-.309m-51.776 2.579c-.085 1.14.471 1.694 1.547 1.536 2.109-.31 2.217-2.787.134-3.092-.865-.127-1.605.559-1.681 1.556M57 125.059c0 .582.45.781 1 .441s1-.816 1-1.059-.45-.441-1-.441-1 .477-1 1.059m-5.823 1.608c.48 2.475 2.489 2.717 3.102.374.405-1.547.055-2.041-1.446-2.041-1.311 0-1.87.563-1.656 1.667m104.49-1c-1.047 1.047-.779 5.333.333 5.333.55 0 1-.886 1-1.969 0-1.339.48-1.784 1.5-1.393.825.317 1.5.126 1.5-.424s-.712-1.273-1.582-1.607c-1.958-.752-1.94-.752-2.751.06M47.352 126.76c.363.588.095 1.297-.596 1.576-.758.305-.562.537.494.585 1.979.089 2.34-1.438.595-2.516-.682-.422-.884-.277-.493.355m21.231 2.106c-.431.697-.513 1.537-.183 1.867.895.895 1.871-.421 1.387-1.871-.338-1.016-.574-1.016-1.204.004M151 129.5c0 .825.45 1.5 1 1.5s1-.675 1-1.5-.45-1.5-1-1.5-1 .675-1 1.5m-94.5.5c-.34.55.084 1 .941 1S59 130.55 59 130s-.423-1-.941-1-1.219.45-1.559 1m89 0c-.34.55-.141 1 .441 1s1.059-.45 1.059-1-.198-1-.441-1-.719.45-1.059 1m12.5 0c0 .55.477 1 1.059 1s.781-.45.441-1-.816-1-1.059-1-.441.45-.441 1m-122 .968c-1.987.511-2.412 1.144-2.071 3.087.235 1.345.46 3.908.5 5.695.069 3.16 2.571 4.863 2.571 1.75 0-.825.388-1.5.861-1.5 1.073 0 .223-4.83-.98-5.574-.485-.299-.881-.994-.881-1.544s.419-.741.931-.425c.512.317 1.232.088 1.6-.507.931-1.507.365-1.726-2.531-.982m35.667.699c-.367.366-.667 1.491-.667 2.5 0 1.267.739 1.833 2.393 1.833 2.377 0 4.128-2.348 3.051-4.09-.653-1.058-3.803-1.218-4.777-.243m-10.96 2.346c-.348 1.33-.01 2.317.914 2.672 1.763.676 2.086.403 2.534-2.149.484-2.757-2.736-3.246-3.448-.523m-20.041.414c-.822 2.143 1.966 4.124 3.737 2.654 1.073-.891 1.499-.874 1.816.075.324.972 1.152.984 3.847.056l3.434-1.182-3.256.461c-2.481.352-3.551-.009-4.491-1.515-1.437-2.302-4.296-2.61-5.087-.549M51 134.059c0 .582.45.781 1 .441s1-.816 1-1.059-.45-.441-1-.441-1 .477-1 1.059m15.507.93c-.35.566.051.734.941.393 1.732-.665 2.049-1.382.611-1.382-.518 0-1.216.445-1.552.989m101.819 5.425c-.869.991-.882 1.63-.05 2.462s.797 1.124-.135 1.124c-.692 0-.967.472-.611 1.049 1.024 1.656 3.47-.932 3.47-3.671 0-2.648-.909-2.976-2.674-.964m-127.632 1.225c-1.043 1.043.278 2.361 2.365 2.361 1.068 0 1.941-.675 1.941-1.5 0-1.483-3.07-2.097-4.306-.861M140 142c0 .55.45 1 1 1s1-.45 1-1-.45-1-1-1-1 .45-1 1m-91.128 1.75c-1.243 1.586-1.208 1.621.378.378.962-.755 1.75-1.543 1.75-1.75 0-.823-.821-.294-2.128 1.372m-5.644 2.1c-2.23.638-2.235.673-.28 1.89 1.7 1.058 2.149.947 3.057-.75 1.12-2.093.886-2.189-2.777-1.14m5.443 1.529c-1.743 2.661-1.455 3.021 1.442 1.801 1.068-.45 1.387-1.312.944-2.551-.61-1.707-.819-1.642-2.386.75m60.015-1.306c-5.682 1.592-7.643 5.809-3.686 7.927 3.434 1.838 7.955-1.385 7.985-5.691.019-2.787-.805-3.215-4.299-2.236M35.638 148.5c.317.825.978 1.5 1.469 1.5s.893-.675.893-1.5-.661-1.5-1.469-1.5c-.894 0-1.243.586-.893 1.5m105.362 2c-1.351 1.628-1.028 1.832 1.418.893.87-.334 1.582-1.009 1.582-1.5 0-1.383-1.62-1.055-3 .607m-97.853 1.231c-2.958.363-3.297.704-2.878 2.898.346 1.806.104 2.345-.881 1.966-1.493-.572-3.895 2.974-2.569 3.793.453.28 1.998-.099 3.432-.843 2.466-1.279 3.749-1.106 3.749.505 0 .394-.947.964-2.105 1.267s-1.918 1.115-1.688 1.804c.656 1.968 2.413 2.116 4.177.352.889-.889 1.616-1.134 1.616-.544S46.477 164 47.059 164s.781-.45.441-1c-.938-1.518.448-1.195 2.143.5.825.825 1.918 1.5 2.428 1.5.511 0 .929-.675.929-1.5s-.478-1.5-1.063-1.5c-.584 0-.922-.971-.75-2.157s-.312-2.37-1.076-2.63c-.845-.287-1.116-.03-.691.657.384.622.224 1.13-.355 1.13-1.109 0-.934-3.464.234-4.632.732-.733-1.124-3.475-2.171-3.208-.346.088-2.137.345-3.981.571M145 153c0 .55.45 1 1 1s1-.45 1-1-.45-1-1-1-1 .45-1 1m19 3.031c0 2.212 2.165 3.503 4.422 2.637.871-.334 1.214-1.345.884-2.607-.748-2.859-5.306-2.884-5.306-.03m8.75.862c-1.835 1.861-2.412 6.107-.829 6.107.506 0 1.217-1.35 1.579-3s1.073-3 1.579-3c.507 0 .921-.45.921-1 0-1.469-1.263-1.121-3.25.893M149 158.5c1.012 1.22.965 1.5-.255 1.5-2.558 0-4.006 2.539-2.27 3.979 1.68 1.395 4.997.594 4.029-.972-.342-.554-.145-1.007.437-1.007s1.059-1.125 1.059-2.5c0-1.881-.525-2.5-2.122-2.5-1.774 0-1.918.247-.878 1.5m4.5-.5c.34.55.816 1 1.059 1s.441-.45.441-1-.477-1-1.059-1-.781.45-.441 1m9.5 3.059c0 .582.45.781 1 .441s1-.816 1-1.059-.45-.441-1-.441-1 .477-1 1.059M37 164c0 .55.477 1 1.059 1s.781-.45.441-1-.816-1-1.059-1-.441.45-.441 1"/></svg>