<svg xmlns="http://www.w3.org/2000/svg" viewBox="0 0 170.5 170.5"><title>Vodafone logo - Brandlogos.net</title><path d="M469.25,384A85.25,85.25,0,1,1,384,298.75,85.25,85.25,0,0,1,469.25,384" transform="translate(-298.75 -298.75)" style="fill:#e60000"/><path d="M384.71,431.54c-23.42.08-47.79-19.91-47.9-52-.11-21.23,11.31-41.7,26-53.79,14.28-11.83,33.84-19.41,51.58-19.47a21.65,21.65,0,0,1,6.13.67c-15.51,3.22-27.86,17.65-27.8,34a8.1,8.1,0,0,0,.11,1.39c26,6.32,37.74,22,37.81,43.69s-17,45.4-45.92,45.49" transform="translate(-298.75 -298.75)" style="fill:#fff"/></svg>